<svg width="238" height="75" viewBox="0 0 238 75" fill="none" xmlns="http://www.w3.org/2000/svg">
<path d="M31.561 55.6123L31.4985 50.5561C29.9389 52.4209 27.9714 53.902 25.748 54.8849C23.3526 55.9076 20.7686 56.4138 18.1644 56.3706C15.6317 56.4127 13.1199 55.9058 10.8016 54.8849C8.71817 53.9566 6.83891 52.6252 5.27203 50.9677C3.75765 49.3494 2.57689 47.4486 1.7972 45.374C0.185073 41.1388 0.196625 36.457 1.82964 32.2299C2.6246 30.1656 3.81581 28.2769 5.33612 26.6701C6.90646 25.0322 8.78587 23.7218 10.8657 22.8146C13.1686 21.819 15.6566 21.3237 18.1652 21.3614H35.5432V55.6139L31.561 55.6123ZM18.1644 25.2153C16.3567 25.2066 14.5646 25.5499 12.8881 26.2261C11.273 26.8683 9.8012 27.8242 8.55767 29.0384C7.31709 30.2669 6.3296 31.7269 5.65117 33.3356C4.91778 35.0857 4.55242 36.9679 4.57783 38.8652C4.5846 40.5133 4.87184 42.1482 5.42724 43.6999C5.99137 45.3141 6.86038 46.8049 7.98703 48.0913C9.18261 49.4414 10.6457 50.5285 12.2835 51.2835C14.1881 52.1434 16.2612 52.5656 18.3505 52.519C20.231 52.5486 22.0957 52.1714 23.8168 51.4132C25.3916 50.7096 26.8181 49.7124 28.0198 48.4751C29.215 47.2474 30.1407 45.7838 30.7379 44.1779C31.2846 42.6608 31.5579 37.5417 31.5579 28.8207V25.2153H18.1644Z" fill="#888C8C"/>
<path d="M55.0692 25.2813H44.0733V55.6158H40.0912L40.1553 21.3633H55.0692V25.2813Z" fill="#888C8C"/>
<path d="M54.4363 39.4348C54.4398 37.1864 54.8586 34.9581 55.6718 32.8619C56.477 30.7385 57.6779 28.7871 59.2107 27.1115C60.7799 25.4026 62.6687 24.0177 64.7705 23.0351C67.0777 21.975 69.5937 21.4472 72.1325 21.4908C73.8596 21.4908 75.4395 21.533 76.8721 21.6174C78.2713 21.6976 79.664 21.8663 81.0419 22.1224C82.4204 22.3843 83.7737 22.7649 85.0866 23.2598C86.5669 23.8277 88.0034 24.5037 89.3846 25.2822V73.3738H85.4032L85.2773 51.0662C83.7441 52.7855 81.9003 54.2002 79.8427 55.236C77.4062 56.4284 74.7175 57.0136 72.0058 56.9417C69.4972 56.9794 67.0092 56.4841 64.7064 55.4885C62.6203 54.5784 60.7395 53.2566 59.1768 51.6021C57.6597 49.9802 56.4692 48.0813 55.6703 46.0091C54.8498 43.9146 54.4312 41.6843 54.4363 39.4348ZM58.4185 39.4348C58.3958 41.3416 58.7609 43.2331 59.4918 44.9945C60.1613 46.6083 61.1502 48.0701 62.3992 49.2919C63.6482 50.5137 65.1314 51.4702 66.7596 52.104C68.4295 52.7622 70.2101 53.0946 72.005 53.0831C73.844 53.0939 75.6678 52.7507 77.3771 52.0723C79.0164 51.4275 80.5096 50.4605 81.7685 49.2284C83.0109 48.0074 83.9896 46.5446 84.6441 44.9304C85.3321 43.2038 85.6549 41.3534 85.5924 39.4958L85.4024 27.5516C83.3333 26.8183 81.21 26.248 79.052 25.8459C77.3106 25.5255 75.5447 25.3563 73.7741 25.3401C71.2073 25.2525 68.6551 25.761 66.3179 26.8258C64.5055 27.6834 62.899 28.9212 61.6076 30.4551C60.4879 31.814 59.6503 33.3825 59.1435 35.0689C58.6951 36.4823 58.4499 37.9523 58.4154 39.4348H58.4185Z" fill="#888C8C"/>
<path d="M120.35 55.6134L120.286 52.0104C118.859 53.4671 117.119 54.5803 115.199 55.2659C113.247 55.9935 111.181 56.3679 109.098 56.3717C108.887 56.3717 108.413 56.3601 107.676 56.34C106.794 56.3014 105.916 56.1959 105.05 56.0242C103.913 55.7968 102.801 55.458 101.73 55.0126C100.501 54.5116 99.3603 53.8182 98.3495 52.9586C96.7197 51.4649 95.4733 49.6008 94.7156 47.524C93.8075 45.0353 93.3681 42.3999 93.4199 39.7512V22.1191H97.4105V39.7512C97.3473 41.8614 97.6466 43.9668 98.2954 45.9758C98.7963 47.464 99.666 48.8011 100.824 49.8622C101.896 50.8193 103.17 51.5215 104.552 51.9162C105.907 52.3116 107.311 52.5136 108.722 52.5161C112.429 52.5161 115.294 51.5157 117.317 49.5147C119.34 47.5137 120.351 44.6594 120.351 40.9519V22.1191H124.331V55.6134H120.35Z" fill="#888C8C"/>
<path d="M163.321 40.1931H132.356C132.467 42.1527 133.041 44.0582 134.031 45.7528C134.905 47.2295 136.052 48.5269 137.41 49.5759C138.675 50.5456 140.096 51.2934 141.612 51.7874C142.987 52.252 144.427 52.4972 145.878 52.514C148.476 52.5426 151.025 51.8065 153.208 50.3975C155.478 48.8948 157.275 46.7796 158.391 44.2972H162.75C161.945 46.2291 160.871 48.0375 159.56 49.6685C158.387 51.1214 157.003 52.3891 155.452 53.4291C152.598 55.3341 149.246 56.3562 145.815 56.368C143.409 56.3914 141.023 55.9292 138.8 55.0089C136.724 54.1511 134.835 52.8954 133.241 51.3125C131.665 49.7296 130.419 47.8502 129.574 45.7829C127.794 41.3389 127.806 36.3779 129.607 31.9423C130.479 29.8657 131.745 27.9777 133.335 26.3826C134.934 24.7897 136.836 23.5327 138.928 22.6854C143.219 20.9723 147.995 20.9172 152.325 22.5309C154.353 23.2892 156.219 24.4256 157.824 25.8799C159.456 27.3763 160.777 29.1801 161.71 31.1879C162.726 33.3817 163.295 35.7556 163.384 38.1715L163.321 40.1931ZM159.213 36.3383C159.008 34.7971 158.492 33.3136 157.696 31.9778C156.902 30.6375 155.888 29.441 154.695 28.4389C153.498 27.4303 152.141 26.6293 150.68 26.0691C149.229 25.5063 147.686 25.2183 146.13 25.2197C143.715 25.1972 141.335 25.8028 139.225 26.9772C137.114 28.1515 135.345 29.8542 134.091 31.9183C133.267 33.272 132.72 34.7753 132.48 36.3414L159.213 36.3383Z" fill="#888C8C"/>
<path d="M166.734 55.6136V9.79688H170.714V55.6136H166.734Z" fill="#888C8C"/>
<path d="M174.001 55.6136V9.79688H177.982V55.6136H174.001Z" fill="#888C8C"/>
<path d="M212.044 55.6124L211.982 50.5561C210.422 52.4209 208.455 53.9021 206.231 54.885C203.836 55.9075 201.252 56.4137 198.648 56.3706C196.115 56.4127 193.603 55.9058 191.285 54.885C189.201 53.9566 187.322 52.6253 185.755 50.9677C184.241 49.3494 183.06 47.4486 182.28 45.374C180.668 41.1388 180.68 36.457 182.313 32.2299C183.107 30.1655 184.299 28.2767 185.819 26.6701C187.39 25.0322 189.269 23.7218 191.349 22.8146C193.652 21.8189 196.14 21.3236 198.648 21.3614H216.027V55.6139L212.044 55.6124ZM198.648 25.2154C196.84 25.2066 195.047 25.5499 193.37 26.2261C191.756 26.8684 190.284 27.8242 189.041 29.0384C187.8 30.2669 186.813 31.7269 186.134 33.3356C185.401 35.0856 185.035 36.9679 185.06 38.8652C185.068 40.5135 185.357 42.1484 185.913 43.6999C186.478 45.3141 187.347 46.8049 188.473 48.0913C189.669 49.4416 191.132 50.5287 192.77 51.2835C194.674 52.1434 196.747 52.5656 198.836 52.519C200.717 52.5487 202.582 52.1715 204.303 51.4132C205.878 50.7096 207.304 49.7124 208.505 48.4751C209.701 47.2476 210.626 45.7839 211.223 44.1779C211.77 42.6608 212.044 37.5417 212.044 28.8207V25.2154H198.648Z" fill="#888C8C"/>
<path d="M220.956 16.4475C237.345 16.4475 237.403 0 237.403 0C237.403 0 220.956 0.0610043 220.956 16.4475Z" fill="#7DCDCD"/>
<path d="M220.956 20.8496C220.956 37.2384 237.403 37.2971 237.403 37.2971C237.403 37.2971 237.345 20.8496 220.956 20.8496Z" fill="#4CC1BE"/>
<path d="M199.814 0C199.814 0 199.873 16.4475 216.262 16.4475C216.262 0.0610043 199.814 0 199.814 0Z" fill="#AADCDC"/>
<path d="M96.164 72.8589C95.5907 72.873 95.0238 72.7353 94.5208 72.4596C94.0584 72.1935 93.6846 71.7971 93.4459 71.3199C93.1794 70.7667 93.0492 70.1577 93.066 69.5439C93.0498 68.8382 93.1948 68.138 93.49 67.4968C93.7511 66.94 94.1696 66.4718 94.6938 66.1501C95.2496 65.8252 95.8849 65.6613 96.5285 65.6768C96.9978 65.672 97.4647 65.7454 97.9099 65.8938C98.3153 66.0295 98.6881 66.2477 99.0049 66.5347L98.5709 67.2953C98.3026 67.0379 97.9854 66.8369 97.638 66.7042C97.2906 66.5716 96.9202 66.51 96.5486 66.5231C96.0827 66.5096 95.6236 66.6368 95.2312 66.8883C94.8555 67.1457 94.5654 67.5096 94.398 67.9331C94.1956 68.4492 94.0982 69.0005 94.1116 69.5547C94.0683 70.2092 94.2667 70.8568 94.6691 71.3747C94.8694 71.5915 95.1154 71.7611 95.3893 71.8711C95.6632 71.9812 95.9582 72.0289 96.2528 72.011C96.5955 72.0092 96.9352 71.9475 97.2567 71.8288C97.6244 71.6909 97.9663 71.4923 98.2682 71.2411L98.564 72.001C98.2612 72.2857 97.9014 72.5028 97.5084 72.638C97.0763 72.7885 96.6215 72.8632 96.164 72.8589Z" fill="#4CC1BE"/>
<path d="M101.609 72.8473C101.221 72.8562 100.838 72.7553 100.504 72.5561C100.184 72.3565 99.9268 72.0689 99.7647 71.7276C99.5782 71.3282 99.487 70.891 99.4982 70.4504C99.4873 69.9507 99.5883 69.455 99.794 68.9995C99.9729 68.6068 100.258 68.2721 100.618 68.0335C100.981 67.7997 101.405 67.6795 101.836 67.6883C102.227 67.677 102.612 67.7848 102.941 67.9972C103.245 68.2032 103.471 68.5057 103.582 68.8558L103.454 69.0033L103.552 67.8103H104.53L104.135 72.7824H103.158L103.256 71.5693L103.355 71.7369C103.277 71.9654 103.144 72.1718 102.969 72.3384C102.793 72.5093 102.582 72.6409 102.351 72.7245C102.113 72.8089 101.862 72.8505 101.609 72.8473ZM101.905 72.0681C102.113 72.0745 102.318 72.0297 102.504 71.9376C102.69 71.8454 102.85 71.7088 102.971 71.5399C103.253 71.1205 103.392 70.6204 103.365 70.1153C103.396 69.6788 103.268 69.246 103.006 68.896C102.864 68.755 102.695 68.645 102.509 68.5732C102.323 68.5014 102.124 68.4694 101.925 68.4791C101.725 68.4889 101.53 68.5402 101.352 68.6298C101.174 68.7194 101.016 68.8453 100.89 68.9995C100.605 69.4204 100.466 69.923 100.494 70.4303C100.467 70.8646 100.599 71.2941 100.864 71.6388C100.995 71.7836 101.156 71.8974 101.336 71.9717C101.516 72.046 101.711 72.079 101.905 72.0681Z" fill="#4CC1BE"/>
<path d="M105.417 74.9113L105.871 69.2095C105.91 68.7437 105.92 68.2758 105.9 67.8088H106.838L106.857 68.8126H106.768C106.851 68.5858 106.983 68.3801 107.155 68.2103C107.331 68.0399 107.542 67.9084 107.772 67.8242C108.074 67.7146 108.396 67.672 108.716 67.6995C109.036 67.727 109.347 67.8238 109.626 67.9833C109.948 68.182 110.207 68.4697 110.371 68.8118C110.557 69.2114 110.647 69.6485 110.636 70.089C110.648 70.5885 110.547 71.0841 110.341 71.5392C110.162 71.9321 109.876 72.267 109.517 72.506C109.151 72.7402 108.723 72.8603 108.289 72.8511C107.9 72.8621 107.517 72.7573 107.188 72.55C106.883 72.3504 106.658 72.0497 106.552 71.7006L106.68 71.5037L106.414 74.9167L105.417 74.9113ZM108.159 72.0704C108.368 72.0791 108.577 72.0359 108.765 71.9447C108.954 71.8535 109.117 71.7171 109.24 71.5477C109.52 71.1252 109.655 70.6235 109.626 70.1176C109.654 69.6837 109.524 69.2545 109.261 68.9084C109.122 68.7648 108.955 68.6525 108.769 68.5788C108.584 68.5052 108.385 68.472 108.186 68.4813C107.987 68.4907 107.792 68.5424 107.614 68.6331C107.436 68.7238 107.28 68.8513 107.155 69.0072C106.869 69.4255 106.728 69.9264 106.755 70.4326C106.725 70.8697 106.855 71.3028 107.121 71.6512C107.251 71.7941 107.413 71.906 107.592 71.9785C107.772 72.0511 107.966 72.0825 108.159 72.0704Z" fill="#4CC1BE"/>
<path d="M111.247 68.5782L111.307 67.806H114.641L114.581 68.5782H111.247ZM114.295 71.9325L114.226 72.7418C114.113 72.7816 113.995 72.8096 113.876 72.8252C113.75 72.8418 113.623 72.8501 113.497 72.8499C113.285 72.8647 113.072 72.834 112.873 72.76C112.674 72.686 112.493 72.5702 112.342 72.4206C112.202 72.2441 112.099 72.0403 112.042 71.8222C111.984 71.6041 111.972 71.3763 112.007 71.1534L112.371 66.5659L113.388 66.2207L113.002 71.0739C112.982 71.268 113.008 71.4641 113.079 71.6461C113.131 71.774 113.23 71.8777 113.354 71.9372C113.487 71.995 113.63 72.0237 113.774 72.0214C113.86 72.0217 113.946 72.015 114.031 72.0013C114.121 71.9854 114.209 71.9624 114.295 71.9325Z" fill="#4CC1BE"/>
<path d="M116.947 72.8494C116.705 72.8672 116.462 72.8308 116.236 72.7429C116.01 72.655 115.806 72.5178 115.639 72.3413C115.482 72.1273 115.37 71.8836 115.31 71.6251C115.25 71.3666 115.243 71.0985 115.289 70.8371L115.516 67.8086H116.52L116.273 70.7776C116.221 71.1121 116.296 71.4541 116.483 71.7359C116.581 71.8458 116.702 71.9315 116.838 71.9862C116.975 72.0409 117.122 72.0631 117.268 72.051C117.449 72.0596 117.63 72.0296 117.798 71.9631C117.966 71.8965 118.119 71.7948 118.245 71.6649C118.503 71.3697 118.652 70.9955 118.669 70.6039L118.896 67.8125H119.881L119.495 72.7845H118.518L118.595 71.7483L118.723 71.7359C118.587 72.0788 118.343 72.3679 118.028 72.5591C117.702 72.7556 117.327 72.8562 116.947 72.8494Z" fill="#4CC1BE"/>
<path d="M120.924 72.7801L121.211 69.2088C121.23 68.9771 121.243 68.7455 121.25 68.5084C121.257 68.2714 121.25 68.0382 121.24 67.808H122.177L122.208 69.0605L122.079 68.8536C122.197 68.5003 122.434 68.1989 122.75 68.0003C123.064 67.7963 123.431 67.6889 123.805 67.6914C123.89 67.6912 123.974 67.6977 124.057 67.7107C124.129 67.7213 124.199 67.7378 124.269 67.7602L124.191 68.6582C124.103 68.625 124.013 68.5992 123.92 68.581C123.821 68.5631 123.72 68.5546 123.619 68.5555C123.339 68.5446 123.062 68.6151 122.821 68.7586C122.616 68.8869 122.45 69.0694 122.342 69.286C122.231 69.5109 122.166 69.7554 122.15 70.0057L121.923 72.7786L120.924 72.7801Z" fill="#4CC1BE"/>
<path d="M124.644 72.7794L125.038 67.8073H126.034L125.64 72.7794H124.644ZM125.127 65.6367H126.285L126.208 66.6823H125.044L125.127 65.6367Z" fill="#4CC1BE"/>
<path d="M127.08 72.7794L127.365 69.208C127.405 68.7422 127.415 68.2743 127.396 67.8073H128.333L128.352 68.8111H128.243C128.38 68.4657 128.626 68.1746 128.945 67.9826C129.281 67.7812 129.667 67.6787 130.059 67.6868C130.306 67.6673 130.554 67.7032 130.785 67.7919C131.016 67.8806 131.225 68.0199 131.395 68.1995C131.553 68.4147 131.665 68.659 131.727 68.9182C131.789 69.1773 131.798 69.4462 131.755 69.7092L131.509 72.777H130.522L130.759 69.7655C130.814 69.4325 130.742 69.0911 130.557 68.8088C130.457 68.6973 130.332 68.6108 130.192 68.556C130.053 68.5011 129.902 68.4796 129.753 68.493C129.565 68.4821 129.377 68.5109 129.202 68.5774C129.026 68.6439 128.866 68.7467 128.732 68.8791C128.471 69.1728 128.32 69.5475 128.303 69.94L128.076 72.7716L127.08 72.7794Z" fill="#4CC1BE"/>
<path d="M133.275 73.6985C133.814 74.0406 134.442 74.2157 135.08 74.2019C135.27 74.2142 135.46 74.1887 135.639 74.1268C135.819 74.0649 135.984 73.9678 136.126 73.8413C136.394 73.541 136.544 73.1542 136.55 72.7518L136.649 71.4684L136.787 71.4885C136.71 71.7227 136.578 71.9348 136.401 72.1062C136.223 72.2813 136.01 72.4159 135.775 72.5008C135.53 72.5906 135.271 72.6359 135.01 72.6344C134.61 72.6443 134.215 72.5472 133.866 72.3533C133.544 72.1661 133.285 71.8881 133.121 71.5541C132.94 71.1776 132.85 70.7635 132.86 70.3456C132.849 69.8689 132.949 69.3961 133.151 68.9642C133.332 68.5839 133.616 68.2613 133.969 68.0322C134.339 67.801 134.769 67.6829 135.205 67.6924C135.602 67.6797 135.994 67.7874 136.329 68.0013C136.633 68.2073 136.859 68.5098 136.971 68.8599L136.852 68.88L136.929 67.8144H137.916L137.521 72.6676C137.54 72.9896 137.487 73.3117 137.367 73.6112C137.248 73.9108 137.064 74.1804 136.829 74.4013C136.593 74.6221 136.313 74.7887 136.006 74.8894C135.7 74.9901 135.375 75.0224 135.055 74.9841C134.348 75.0017 133.649 74.8278 133.033 74.4807L133.275 73.6985ZM135.277 71.8452C135.484 71.8529 135.69 71.8124 135.878 71.7269C136.067 71.6414 136.233 71.5132 136.363 71.3526C136.65 70.9694 136.793 70.4976 136.767 70.0198C136.796 69.6043 136.661 69.1941 136.392 68.8762C136.256 68.7408 136.092 68.6357 135.912 68.5677C135.731 68.4997 135.539 68.4704 135.347 68.4816C135.139 68.4726 134.932 68.5125 134.743 68.5981C134.554 68.6837 134.387 68.8125 134.257 68.9742C133.97 69.3648 133.829 69.8428 133.857 70.3263C133.832 70.7324 133.962 71.1328 134.222 71.446C134.359 71.5839 134.524 71.6908 134.706 71.7594C134.888 71.828 135.083 71.8568 135.277 71.8437V71.8452Z" fill="#4CC1BE"/>
<path d="M141.611 72.7812L141.897 69.2099C141.917 68.9782 141.93 68.7466 141.937 68.5095C141.944 68.2725 141.937 68.0393 141.927 67.8092H142.864L142.883 68.813L142.755 68.803C142.888 68.4606 143.126 68.1687 143.434 67.9687C143.742 67.7687 144.105 67.6708 144.472 67.6887C144.876 67.6651 145.274 67.7953 145.586 68.0532C145.728 68.1921 145.841 68.3578 145.919 68.5407C145.997 68.7235 146.038 68.92 146.04 69.1188L145.794 68.8825C145.936 68.5201 146.187 68.2112 146.513 67.9991C146.847 67.7896 147.235 67.6823 147.628 67.6902C147.86 67.6717 148.093 67.7085 148.308 67.7976C148.523 67.8868 148.713 68.0257 148.864 68.203C149.156 68.6484 149.27 69.1869 149.185 69.7126L148.948 72.7805H147.962L148.198 69.7512C148.257 69.429 148.203 69.0964 148.044 68.8099C147.958 68.7015 147.846 68.6164 147.718 68.5625C147.59 68.5085 147.451 68.4874 147.313 68.501C147.143 68.4936 146.972 68.5237 146.815 68.5894C146.657 68.655 146.516 68.7546 146.401 68.8809C146.15 69.1973 146.01 69.587 146.001 69.9906L145.784 72.7828H144.788L145.025 69.7535C145.083 69.4309 145.027 69.0983 144.867 68.8122C144.783 68.7044 144.672 68.6196 144.546 68.5656C144.421 68.5117 144.283 68.4902 144.147 68.5034C143.975 68.4947 143.804 68.5243 143.645 68.59C143.487 68.6557 143.345 68.7559 143.229 68.8833C142.982 69.2009 142.843 69.5901 142.835 69.9929L142.609 72.7851L141.611 72.7812Z" fill="#4CC1BE"/>
<path d="M152.669 72.8493C152.229 72.8605 151.792 72.7587 151.402 72.5536C151.05 72.3628 150.763 72.0707 150.578 71.715C150.379 71.3174 150.281 70.8769 150.292 70.4324C150.281 69.9301 150.387 69.4321 150.601 68.9776C150.789 68.5839 151.089 68.2542 151.463 68.0294C151.858 67.8006 152.309 67.6847 152.765 67.6942C153.205 67.6826 153.64 67.7862 154.028 67.9946C154.378 68.1903 154.664 68.4831 154.852 68.8378C155.053 69.2315 155.153 69.6691 155.143 70.1112C155.157 70.6177 155.051 71.1204 154.834 71.5783C154.642 71.9716 154.341 72.3006 153.965 72.525C153.571 72.7491 153.123 72.8613 152.669 72.8493ZM152.679 72.0702C152.968 72.0788 153.251 71.9901 153.483 71.8185C153.713 71.6384 153.884 71.3949 153.977 71.1181C154.091 70.7832 154.146 70.431 154.14 70.0772C154.168 69.6527 154.042 69.2323 153.784 68.8934C153.657 68.7526 153.499 68.6423 153.324 68.5706C153.148 68.499 152.958 68.4679 152.768 68.4795C152.477 68.4697 152.19 68.5581 151.954 68.7305C151.724 68.9115 151.551 69.1549 151.456 69.4317C151.339 69.7622 151.282 70.1111 151.289 70.4617C151.258 70.8913 151.384 71.3175 151.644 71.6609C151.775 71.802 151.936 71.9119 152.115 71.9827C152.295 72.0535 152.487 72.0834 152.679 72.0702Z" fill="#4CC1BE"/>
<path d="M156.102 72.7812L156.388 69.2099C156.408 68.9782 156.421 68.7466 156.428 68.5095C156.435 68.2725 156.428 68.0393 156.418 67.8092H157.356L157.375 68.813L157.247 68.803C157.38 68.4606 157.617 68.1687 157.925 67.9687C158.233 67.7687 158.597 67.6708 158.963 67.6887C159.367 67.6651 159.766 67.7953 160.078 68.0532C160.22 68.1921 160.333 68.3578 160.411 68.5407C160.489 68.7235 160.53 68.92 160.532 69.1188L160.285 68.8825C160.427 68.5201 160.679 68.2112 161.005 67.9991C161.339 67.7896 161.726 67.6823 162.12 67.6902C162.352 67.6717 162.585 67.7085 162.8 67.7976C163.014 67.8868 163.205 68.0257 163.356 68.203C163.647 68.6486 163.762 69.1869 163.677 69.7126L163.44 72.7805H162.454L162.69 69.7512C162.749 69.429 162.694 69.0964 162.535 68.8099C162.449 68.7015 162.337 68.6164 162.21 68.5625C162.082 68.5085 161.943 68.4874 161.805 68.501C161.634 68.4936 161.464 68.5237 161.306 68.5894C161.149 68.655 161.007 68.7546 160.892 68.8809C160.642 69.1973 160.501 69.587 160.493 69.9906L160.276 72.7828H159.28L159.517 69.7535C159.576 69.4313 159.521 69.0988 159.363 68.8122C159.278 68.7044 159.168 68.6196 159.042 68.5656C158.916 68.5117 158.778 68.4902 158.642 68.5034C158.471 68.4947 158.299 68.5243 158.141 68.59C157.982 68.6557 157.84 68.7559 157.725 68.8833C157.477 69.2009 157.339 69.5901 157.33 69.9929L157.103 72.7851L156.102 72.7812Z" fill="#4CC1BE"/>
<path d="M169.094 72.2166C168.85 72.4294 168.562 72.5873 168.251 72.6799C167.912 72.7904 167.557 72.8469 167.2 72.8475C166.752 72.8597 166.307 72.758 165.908 72.5517C165.553 72.3614 165.263 72.0694 165.074 71.7131C164.873 71.3197 164.773 70.8824 164.783 70.4406C164.774 69.9429 164.879 69.4497 165.092 68.9997C165.282 68.6017 165.581 68.2664 165.955 68.0337C166.343 67.7989 166.79 67.6792 167.243 67.6885C167.662 67.6762 168.077 67.7784 168.442 67.9843C168.78 68.1889 169.039 68.5018 169.177 68.8723C169.342 69.3334 169.389 69.8283 169.315 70.3124H165.655L165.694 69.7209H168.772L168.477 69.9178C168.511 69.7239 168.506 69.525 168.461 69.3333C168.416 69.1416 168.332 68.961 168.215 68.8028C168.1 68.6726 167.956 68.5703 167.796 68.5034C167.635 68.4365 167.462 68.4069 167.288 68.4167C167.071 68.4047 166.855 68.4455 166.657 68.5358C166.46 68.6261 166.287 68.763 166.154 68.9348C165.863 69.3801 165.724 69.9081 165.759 70.439C165.733 70.871 165.866 71.2977 166.135 71.6374C166.277 71.7866 166.451 71.9025 166.644 71.9767C166.836 72.0509 167.043 72.0817 167.249 72.0668C167.531 72.0668 167.811 72.0217 168.078 71.9332C168.355 71.841 168.612 71.6992 168.837 71.5147L169.094 72.2166Z" fill="#4CC1BE"/>
<path d="M170.249 72.7794L170.536 69.208C170.575 68.7422 170.584 68.2743 170.565 67.8073H171.502L171.522 68.8111H171.413C171.55 68.4656 171.796 68.1745 172.114 67.9826C172.45 67.7812 172.836 67.6787 173.228 67.6868C173.475 67.6673 173.723 67.7032 173.954 67.7919C174.186 67.8806 174.394 68.0199 174.565 68.1995C174.722 68.4146 174.835 68.6589 174.897 68.9181C174.959 69.1773 174.968 69.4462 174.925 69.7092L174.678 72.777H173.692L173.928 69.7655C173.984 69.4325 173.912 69.0909 173.726 68.8088C173.626 68.6973 173.501 68.6108 173.362 68.556C173.222 68.5011 173.072 68.4796 172.922 68.493C172.735 68.4822 172.547 68.511 172.371 68.5776C172.195 68.6441 172.035 68.7468 171.901 68.8791C171.641 69.173 171.489 69.5476 171.472 69.94L171.246 72.7716L170.249 72.7794Z" fill="#4CC1BE"/>
<path d="M175.773 68.5782L175.832 67.806H179.167L179.108 68.5782H175.773ZM178.821 71.9325L178.753 72.7418C178.639 72.7816 178.522 72.8096 178.402 72.8252C178.276 72.8418 178.149 72.85 178.022 72.8499C177.81 72.8646 177.598 72.8339 177.399 72.7599C177.2 72.6858 177.019 72.5701 176.868 72.4206C176.727 72.244 176.625 72.0402 176.567 71.8221C176.51 71.604 176.498 71.3763 176.533 71.1534L176.898 66.5659L177.914 66.2207L177.528 71.0739C177.509 71.268 177.535 71.464 177.605 71.6461C177.658 71.7742 177.756 71.878 177.882 71.9372C178.014 71.9952 178.157 72.0239 178.301 72.0214C178.387 72.0217 178.473 72.015 178.557 72.0013C178.647 71.9853 178.735 71.9623 178.821 71.9325Z" fill="#4CC1BE"/>
<path d="M181.495 72.8471C181.114 72.8501 180.735 72.7954 180.37 72.6849C180.029 72.5799 179.706 72.4215 179.414 72.2154L179.778 71.4958C180.265 71.8923 180.877 72.1052 181.505 72.0973C181.792 72.116 182.078 72.0562 182.333 71.9243C182.42 71.8742 182.492 71.8014 182.541 71.7136C182.589 71.6259 182.613 71.5266 182.61 71.4263C182.611 71.3483 182.594 71.2711 182.558 71.2015C182.523 71.1319 182.471 71.072 182.407 71.0271C182.248 70.9135 182.072 70.8269 181.885 70.7707C181.671 70.7012 181.445 70.634 181.209 70.5676C180.976 70.5038 180.75 70.4182 180.533 70.312C180.33 70.2153 180.153 70.0696 180.02 69.8881C179.883 69.6807 179.816 69.4351 179.828 69.1869C179.822 68.9033 179.91 68.6257 180.079 68.3978C180.262 68.1627 180.506 67.9819 180.784 67.875C181.124 67.7439 181.486 67.6804 181.85 67.6881C182.197 67.6867 182.542 67.7433 182.871 67.8557C183.173 67.9536 183.45 68.1147 183.685 68.3283L183.329 69.0294C182.918 68.6647 182.39 68.4583 181.84 68.4472C181.561 68.431 181.282 68.4925 181.036 68.6248C180.946 68.6785 180.873 68.7554 180.823 68.8474C180.774 68.9395 180.75 69.0432 180.755 69.1476C180.752 69.2266 180.769 69.3051 180.803 69.3764C180.837 69.4476 180.888 69.5095 180.952 69.5568C181.108 69.671 181.284 69.7562 181.47 69.8086C181.684 69.8739 181.909 69.9396 182.146 70.0055C182.377 70.0698 182.602 70.1559 182.817 70.2626C183.019 70.3612 183.196 70.5043 183.335 70.6811C183.478 70.8838 183.549 71.1284 183.537 71.3761C183.544 71.5889 183.497 71.8 183.399 71.9892C183.302 72.1784 183.157 72.3395 182.98 72.4571C182.537 72.7367 182.018 72.8728 181.495 72.8471Z" fill="#4CC1BE"/>
<path d="M189.525 72.8503C189.084 72.8615 188.648 72.7597 188.258 72.5546C187.905 72.3641 187.618 72.0719 187.434 71.716C187.234 71.3186 187.136 70.878 187.147 70.4334C187.136 69.9311 187.242 69.433 187.456 68.9786C187.646 68.5829 187.948 68.2517 188.324 68.0265C188.717 67.8127 189.155 67.6977 189.602 67.6917C190.049 67.6856 190.491 67.7886 190.889 67.9918C191.239 68.1877 191.526 68.4805 191.713 68.835C191.915 69.2286 192.015 69.6663 192.004 70.1083C192.019 70.6149 191.913 71.1176 191.696 71.5755C191.505 71.9688 191.203 72.2979 190.828 72.5222C190.432 72.7489 189.981 72.8624 189.525 72.8503ZM189.535 72.0712C189.824 72.0798 190.107 71.9911 190.339 71.8195C190.568 71.6394 190.74 71.3959 190.832 71.1191C190.946 70.7842 191.001 70.432 190.995 70.0782C191.023 69.6537 190.897 69.2334 190.64 68.8944C190.512 68.7536 190.355 68.6433 190.179 68.5717C190.003 68.5 189.813 68.4689 189.624 68.4806C189.332 68.4707 189.045 68.5591 188.81 68.7315C188.58 68.9123 188.407 69.1558 188.312 69.4327C188.194 69.7631 188.136 70.112 188.142 70.4628C188.111 70.8922 188.237 71.3181 188.496 71.662C188.628 71.8028 188.789 71.9126 188.968 71.9834C189.147 72.0542 189.34 72.0842 189.532 72.0712H189.535Z" fill="#4CC1BE"/>
<path d="M192.613 68.5779L192.682 67.8057H196.007L195.947 68.5779H192.613ZM196.036 66.3679C195.882 66.3246 195.723 66.3015 195.563 66.2991C195.419 66.2975 195.276 66.3261 195.143 66.3833C195.011 66.4431 194.9 66.5431 194.828 66.669C194.733 66.8472 194.68 67.0448 194.673 67.2466L194.229 72.7809H193.242L193.687 67.157C193.696 66.6842 193.882 66.232 194.209 65.8899C194.532 65.5959 194.957 65.4415 195.394 65.4606C195.514 65.4608 195.634 65.4691 195.753 65.4853C195.872 65.5022 195.989 65.528 196.103 65.5625L196.036 66.3679Z" fill="#4CC1BE"/>
<path d="M201.333 72.8473C200.893 72.8584 200.456 72.7566 200.066 72.5515C199.714 72.3608 199.427 72.0686 199.242 71.7129C199.044 71.3186 198.945 70.8816 198.956 70.4404C198.944 69.9355 199.052 69.4351 199.272 68.9802C199.469 68.5792 199.782 68.2461 200.17 68.0234C200.589 67.7922 201.062 67.6765 201.541 67.6883C201.895 67.6837 202.247 67.7404 202.581 67.8559C202.876 67.957 203.146 68.1179 203.376 68.3285L203.01 69.0396C202.8 68.8664 202.563 68.7265 202.31 68.625C202.071 68.5328 201.817 68.4862 201.56 68.4875C201.338 68.4751 201.115 68.5154 200.911 68.6054C200.707 68.6953 200.528 68.8322 200.387 69.0049C200.087 69.4251 199.941 69.9353 199.972 70.4504C199.947 70.8754 200.083 71.2943 200.352 71.6241C200.487 71.768 200.652 71.8805 200.835 71.9537C201.019 72.027 201.216 72.0592 201.413 72.0481C201.661 72.051 201.907 72.0056 202.138 71.9145C202.386 71.8096 202.616 71.6686 202.823 71.496L203.079 72.2156C202.851 72.42 202.585 72.5774 202.295 72.6789C201.987 72.7911 201.661 72.848 201.333 72.8473Z" fill="#4CC1BE"/>
<path d="M205.99 72.8472C205.601 72.8561 205.218 72.7552 204.885 72.5561C204.564 72.3562 204.307 72.0687 204.145 71.7275C203.958 71.3282 203.867 70.891 203.878 70.4504C203.867 69.9506 203.969 69.4547 204.175 68.9994C204.353 68.6066 204.639 68.2719 204.998 68.0334C205.361 67.7998 205.785 67.6796 206.217 67.6883C206.608 67.6773 206.993 67.785 207.322 67.9971C207.626 68.2032 207.851 68.5057 207.962 68.8558L207.834 69.0033L207.933 67.8103H208.91L208.515 72.7823H207.539L207.637 71.5693L207.736 71.7368C207.657 71.9652 207.525 72.1715 207.35 72.3383C207.174 72.5092 206.963 72.6407 206.732 72.7244C206.494 72.8088 206.242 72.8504 205.99 72.8472ZM206.285 72.0681C206.493 72.0745 206.698 72.0296 206.884 71.9375C207.07 71.8454 207.23 71.7088 207.351 71.5399C207.634 71.1206 207.772 70.6204 207.745 70.1152C207.776 69.6788 207.648 69.2459 207.386 68.8959C207.245 68.7549 207.075 68.645 206.889 68.5732C206.703 68.5014 206.504 68.4693 206.305 68.4791C206.106 68.4888 205.911 68.5401 205.732 68.6298C205.554 68.7194 205.397 68.8453 205.27 68.9994C204.985 69.4204 204.847 69.923 204.875 70.4303C204.848 70.8645 204.979 71.2939 205.244 71.6387C205.375 71.784 205.537 71.898 205.717 71.9724C205.898 72.0467 206.093 72.0794 206.288 72.0681H206.285Z" fill="#4CC1BE"/>
<path d="M209.964 72.7801L210.251 69.2088C210.27 68.9771 210.283 68.7455 210.29 68.5084C210.297 68.2714 210.29 68.0382 210.28 67.808H211.217L211.247 69.0605L211.119 68.8536C211.237 68.5003 211.474 68.1989 211.79 68.0003C212.104 67.7963 212.471 67.6889 212.845 67.6914C212.93 67.6912 213.014 67.6977 213.097 67.7107C213.169 67.7213 213.24 67.7378 213.309 67.7602L213.231 68.6582C213.143 68.625 213.053 68.5992 212.96 68.581C212.861 68.5631 212.76 68.5546 212.659 68.5555C212.379 68.5447 212.101 68.6153 211.86 68.7586C211.655 68.887 211.49 69.0695 211.382 69.286C211.271 69.5109 211.206 69.7554 211.19 70.0057L210.963 72.7786L209.964 72.7801Z" fill="#4CC1BE"/>
<path d="M217.808 72.2166C217.563 72.4296 217.275 72.5875 216.964 72.6799C216.625 72.7905 216.27 72.847 215.914 72.8475C215.465 72.8596 215.02 72.7579 214.621 72.5517C214.266 72.3611 213.976 72.0692 213.788 71.7131C213.586 71.3198 213.486 70.8824 213.497 70.4406C213.487 69.9429 213.593 69.4497 213.805 68.9997C213.995 68.6017 214.294 68.2664 214.669 68.0337C215.056 67.7988 215.503 67.6791 215.956 67.6885C216.375 67.6761 216.789 67.7784 217.154 67.9843C217.493 68.1886 217.752 68.5017 217.89 68.8723C218.055 69.3333 218.102 69.8283 218.028 70.3124H214.368L214.407 69.7209H217.485L217.189 69.9178C217.224 69.724 217.218 69.5251 217.174 69.3334C217.129 69.1417 217.045 68.9611 216.928 68.8028C216.813 68.6727 216.67 68.5704 216.509 68.5035C216.349 68.4366 216.175 68.407 216.002 68.4167C215.785 68.4046 215.568 68.4455 215.37 68.5357C215.173 68.626 215 68.7629 214.867 68.9348C214.575 69.3799 214.437 69.908 214.473 70.439C214.446 70.871 214.579 71.2976 214.847 71.6375C214.99 71.7867 215.164 71.9025 215.357 71.9768C215.549 72.051 215.756 72.0817 215.962 72.0668C216.244 72.0669 216.523 72.0218 216.791 71.9332C217.067 71.8411 217.325 71.6993 217.551 71.5147L217.808 72.2166Z" fill="#4CC1BE"/>
</svg>
